<?xml version="1.0" encoding="utf-8"?>
<!-- Generator: Adobe Illustrator 22.1.0, SVG Export Plug-In . SVG Version: 6.00 Build 0)  -->
<svg version="1.1" id="Layer_1" xmlns="http://www.w3.org/2000/svg" xmlns:xlink="http://www.w3.org/1999/xlink" x="0px" y="0px"
	 viewBox="0 0 601.1 476.7" style="enable-background:new 0 0 601.1 476.7;" xml:space="preserve">
<style type="text/css">
	.st0{fill:#FCB128;}
	.st1{fill:#E7895D;}
	.st2{fill:#EDEDE1;}
	.st3{fill:#2B2C2B;}
</style>
<g>
	<g>
		<g>
			<path class="st0" d="M13.1,301.3h37.2V315h-23v13.4h23V342h-23v33.3H13.1V301.3z"/>
		</g>
		<g>
			<path class="st0" d="M98.3,299.4c10.6,0,19.7,3.8,27.3,11.4c7.6,7.6,11.4,16.8,11.4,27.7c0,10.8-3.8,19.9-11.3,27.4
				c-7.5,7.5-16.6,11.2-27.4,11.2c-11.3,0-20.6-3.8-28-11.5c-7.4-7.7-11.1-16.8-11.1-27.3c0-7.1,1.7-13.6,5.2-19.5
				c3.5-5.9,8.2-10.6,14.3-14.1C84.8,301.2,91.3,299.4,98.3,299.4z M98.1,313.2c-6.9,0-12.8,2.4-17.5,7.1s-7.1,10.8-7.1,18.2
				c0,8.2,3,14.7,8.9,19.4c4.6,3.7,9.9,5.6,15.9,5.6c6.8,0,12.5-2.4,17.3-7.2c4.8-4.8,7.1-10.8,7.1-17.8c0-7-2.4-13-7.2-17.9
				C110.8,315.6,105,313.2,98.1,313.2z"/>
		</g>
		<g>
			<path class="st0" d="M185.9,299.4c10.6,0,19.7,3.8,27.3,11.4c7.6,7.6,11.4,16.8,11.4,27.7c0,10.8-3.8,19.9-11.3,27.4
				c-7.5,7.5-16.6,11.2-27.4,11.2c-11.2,0-20.6-3.8-28-11.5s-11.2-16.8-11.2-27.3c0-7.1,1.7-13.6,5.2-19.5
				c3.5-5.9,8.2-10.6,14.3-14.1C172.3,301.2,178.9,299.4,185.9,299.4z M185.7,313.2c-6.9,0-12.8,2.4-17.5,7.1
				c-4.7,4.8-7.1,10.8-7.1,18.2c0,8.2,3,14.7,8.9,19.4c4.6,3.7,9.9,5.6,15.9,5.6c6.8,0,12.5-2.4,17.3-7.2c4.8-4.8,7.1-10.8,7.1-17.8
				c0-7-2.4-13-7.2-17.9C198.4,315.6,192.6,313.2,185.7,313.2z"/>
		</g>
		<g>
			<path class="st0" d="M238.1,301.3H255c10.9,0,19,1.3,24.3,4c5.3,2.7,9.6,7,13.1,13c3.4,6,5.1,13,5.1,21c0,5.7-1,10.9-2.9,15.7
				c-1.9,4.8-4.6,8.7-7.9,11.9c-3.4,3.2-7,5.3-11,6.5c-3.9,1.2-10.8,1.8-20.5,1.8h-17.1V301.3z M252.3,314.9v46.7h6.6
				c6.5,0,11.3-0.7,14.2-2.2c2.9-1.5,5.3-4,7.2-7.5c1.9-3.5,2.8-7.8,2.8-12.9c0-7.9-2.2-13.9-6.7-18.3c-4-3.9-10.4-5.8-19.3-5.8
				L252.3,314.9L252.3,314.9z"/>
		</g>
		<g>
			<path class="st1" d="M340.5,305.2h14c5.6,0,10,0.7,13,2c3,1.3,5.4,3.3,7.2,6.1c1.8,2.7,2.6,5.8,2.6,9.1c0,3.1-0.8,6-2.3,8.5
				c-1.5,2.6-3.8,4.6-6.8,6.2c3.7,1.2,6.5,2.7,8.5,4.4c2,1.7,3.5,3.7,4.6,6c1.1,2.4,1.7,4.9,1.7,7.7c0,5.6-2.1,10.4-6.3,14.3
				c-4.2,3.9-9.8,5.8-16.8,5.8h-19.5L340.5,305.2L340.5,305.2z M347.5,312v22.4h4.1c4.9,0,8.6-0.5,10.9-1.4c2.3-0.9,4.2-2.3,5.5-4.3
				c1.3-2,2-4.1,2-6.5c0-3.2-1.1-5.7-3.4-7.5c-2.3-1.8-5.9-2.7-10.9-2.7L347.5,312L347.5,312z M347.5,341.5v26.9h8.8
				c5.2,0,9-0.5,11.4-1.5c2.4-1,4.3-2.6,5.8-4.7c1.5-2.1,2.2-4.4,2.2-6.9c0-3.1-1-5.8-3.1-8.2s-4.9-3.9-8.5-4.8
				c-2.4-0.6-6.6-0.8-12.6-0.8L347.5,341.5L347.5,341.5z"/>
		</g>
		<g>
			<path class="st1" d="M426.1,305.2l33.1,70.1h-7.7l-11.2-23.1h-30.6l-11.1,23.1h-7.9l33.5-70.1H426.1z M425.2,320.1L413,345.4
				h24.3L425.2,320.1z"/>
		</g>
		<g>
			<path class="st1" d="M470.2,375.2v-70.1h1.5l47.2,53.7v-53.7h7v70.1h-1.6l-46.8-53.1v53.1L470.2,375.2L470.2,375.2z"/>
		</g>
		<g>
			<path class="st1" d="M543.2,305.2h7.2v26.3l28.4-26.3h9.5l-34.1,31.5l36.7,38.6h-9.5l-31.1-32.6v32.6h-7.2L543.2,305.2
				L543.2,305.2z"/>
		</g>
	</g>
	<g>
		<g>
			
				<image style="overflow:visible;enable-background:new    ;" width="296" height="804" xlink:href="8CE30F55.png"  transform="matrix(0.2384 0 0 0.2384 473.6606 78.2107)">
			</image>
			
				<image style="overflow:visible;enable-background:new    ;" width="250" height="146" xlink:href="8CE30F57.png"  transform="matrix(0.2318 0 0 0.2318 439.288 63.1588)">
			</image>
		</g>
	</g>
	<g>
		<g>
			
				<image style="overflow:visible;enable-background:new    ;" width="296" height="804" xlink:href="8CE30F52.png"  transform="matrix(0.2384 0 0 0.2384 52.4606 78.2107)">
			</image>
			
				<image style="overflow:visible;enable-background:new    ;" width="250" height="146" xlink:href="8CE30F53.png"  transform="matrix(0.2318 0 0 0.2318 99.328 63.1588)">
			</image>
		</g>
	</g>
	<g>
		<g>
			<g>
				<path class="st2" d="M169,204.2c9.1-11.2,20.2-17.9,33.7-19.8c3.9-0.5,8.5,1.7,12.2,3.6c13.5,7.1,15.4,10.7,25.6-5.4
					c1.2-1.8,2.6-3.5,4.2-5c3.5-3.5,7.7-4.7,11.7-1.1c4.9,4.4,9.4,9.1,13.8,13.8c7,7.5,11.2,7.5,18.3,0.3c4.3-4.4,8.6-8.8,13.6-12.4
					c8.8-6.3,20.5-5.2,28.7,2c2.7,2.4,5,5.1,7.5,7.6c6.1,6.2,11.2,7.3,18.8,3c5.8-3.4,11.3-7.5,16.7-11.5c9.5-6.9,14.1-6.8,22.2,1.8
					c4.1,4.3,7.6,9.1,11.7,13.5c5,5.4,7.5,5,14,1.5c4.3-2.3,9.6-3.6,14.5-4c4.4-0.4,6.2,3.1,3.7,6.8c-5,7.5-11.6,13.7-20.6,16.3
					c-6.1,1.8-11.4,0-15.7-4.7c-3.5-3.8-6.9-7.7-10.8-11.1c-5.1-4.5-9.6-4.4-15,0.1c-5.3,4.5-10,9.6-15.5,13.9
					c-3.2,2.5-7.4,5.1-11.2,5c-4.3-0.1-9.2-2.3-12.7-4.9c-4.5-3.4-7.8-8.5-11.8-12.5c-5.8-5.7-10.7-5.7-17.7-1.3
					c-5.8,3.7-11.7,7.6-18.1,10.2c-10.8,4.4-20.6,2.3-29.1-6c-7.5-7.4-10.8-7.9-18.9-0.9c-9.4,8-18.9,8.3-29.3,2.8
					c-7.1-3.7-13.7-4.6-21.6-0.8C185.1,208.5,177.2,207.8,169,204.2z"/>
			</g>
			<g>
				<path class="st2" d="M176.5,172.1c3.4-3.5,7.4-6.2,12.2-7.8c5.6-1.9,10.6-0.2,14.7,4.4c1.1,1.3,2.2,2.5,3.4,3.8l28.2-0.8
					c2.2-2.3,4.4-4.5,6.7-6.5c2.9-2.5,6.8-5.2,10.3-5.2c4,0,8.6,2.1,11.9,4.7c2.1,1.7,4,3.8,5.8,5.9l34.6-1c1.3-0.7,2.6-1.4,3.9-2
					c7.8-3.6,15.3-3.2,22,1.3l32.1-1c3.4-1.1,6.9-1.2,10.5-0.3l42.7-1.3c7.5-0.2,13.3-6.9,13.1-14.8l-0.2-5.4
					c-0.2-7.9-6.5-14.2-14-14l-233.1,7c-7.5,0.2-13.4,6.9-13.1,14.8l0.2,5.4C168.3,165.1,171.7,170,176.5,172.1z"/>
			</g>
			<g>
				<path class="st2" d="M250.5,124.4l-65,1.9c-1.5,0-2.8-1.1-2.8-2.6l-0.4-12.3c0-1.5,1.1-2.8,2.7-2.8l65-1.9
					c1.5,0,2.8,1.1,2.8,2.6l0.4,12.3C253.2,123.1,252,124.3,250.5,124.4z"/>
			</g>
			<g>
				<path class="st2" d="M337,128.3l-65,1.9c-1.5,0-2.8-1.1-2.8-2.7l-0.4-12.3c0-1.5,1.1-2.8,2.6-2.8l65-1.9c1.5,0,2.8,1.1,2.8,2.6
					l0.4,12.3C339.7,127,338.5,128.3,337,128.3z"/>
			</g>
			<g>
				<path class="st2" d="M421.1,116.9l-65,1.9c-1.5,0-2.8-1.1-2.8-2.7l-0.4-12.3c0-1.5,1.2-2.8,2.7-2.8l65-1.9
					c1.5,0,2.8,1.1,2.8,2.6l0.4,12.3C423.8,115.6,422.6,116.8,421.1,116.9z"/>
			</g>
			<g>
				<path class="st2" d="M411.8,225.2l-209,2.6c-12.1,0.2-18.9,9.1-11.6,15.2c8.4,7,18.7,13.2,30.4,18.3c2.7,1.2,5.6,1.8,8.6,1.7
					l155-1.9c3,0,5.9-0.7,8.6-2c11.6-5.4,21.7-11.8,29.9-19C431,233.9,423.9,225.1,411.8,225.2z"/>
			</g>
			<g>
				<g>
					<path class="st2" d="M414.1,86c-5.9-22.9-15.8-40.9-29.7-54.2c0.2-0.1,0.3-0.1,0.5-0.2c1.5-0.9,2.2-2.3,1.4-3.9
						c-0.8-1.6-2.2-1.2-3.6-0.3c-0.7,0.4-1.3,0.9-1.7,1.4c-6.8-5.9-14.4-10.7-23-14.4c0.3-2.7-1.8-3.7-4.5-4.1
						c-1.8-0.3-3.4-0.2-4.4,0.6c-14.8-5-31.8-7.1-51.1-6.6c-0.3,0-0.7,0-1,0c0.1-0.8,0-1.7-0.5-2.6c-1.3-2.6-3.6-2-6-0.6
						c-1.8,1.1-3.2,2.3-3.2,3.9c-10.2,1.1-20,3.3-29.4,6.6c-0.6-1.2-2.1-1.9-3.9-2.4c-2.7-0.7-5-0.6-5.6,2.2c-0.3,1.4,0,2.6,0.7,3.5
						c-12.8,5.5-24.4,12.9-34.6,21.8c0-0.2-0.1-0.4-0.2-0.6c-0.8-1.6-2.2-1.2-3.6-0.3c-1.5,0.9-2.5,1.9-1.7,3.4
						c0.4,0.7,0.9,1.1,1.4,1.2c-10.8,10.2-19.7,22.2-26.3,35.5c-6.2,12.4,2.4,27.5,15.7,27.5l211-13.3
						C413.1,90.4,414.7,88.2,414.1,86z"/>
				</g>
			</g>
		</g>
		<g>
			<path class="st3" d="M225.4,48.6c1.3,2.6,0,5-2.4,6.4c-2.4,1.4-5,1.2-6.4-1.3s0.4-4.2,2.8-5.6C221.9,46.6,224.1,46,225.4,48.6z"
				/>
		</g>
		<g>
			<path class="st3" d="M297.6,33.8c1.3,2.6,0.1,5-2.3,6.4s-5,1.2-6.4-1.3c-1.3-2.6,0.3-4.2,2.8-5.6
				C294.1,31.8,296.3,31.2,297.6,33.8z"/>
		</g>
		<g>
			<path class="st3" d="M271.6,42.7c1.3,2.6,0,5-2.4,6.4c-2.4,1.4-5,1.2-6.4-1.3c-1.3-2.6,0.4-4.2,2.8-5.6
				C268.1,40.8,270.3,40.1,271.6,42.7z"/>
		</g>
		<g>
			<path class="st3" d="M358.2,32c1.3,2.6,0,5-2.3,6.4c-2.4,1.4-5,1.2-6.4-1.3s0.3-4.2,2.8-5.6C354.6,30,356.8,29.4,358.2,32z"/>
		</g>
		<g>
			<path class="st3" d="M274.8,25.2c-2,2-4.5,1.4-6.5-0.7c-1.9-2.1-2.5-4.8-0.5-6.9c2-2,3.9-0.8,5.9,1.3
				C275.5,21.1,276.7,23.2,274.8,25.2z"/>
		</g>
		<g>
			<path class="st3" d="M248.8,29.8c-0.4,2.9-2.8,4-5.5,3.6s-4.7-2.2-4.4-5.1s2.7-3.1,5.4-2.7C247,26,249.2,26.9,248.8,29.8z"/>
		</g>
		<g>
			<path class="st3" d="M319.7,20.6c-0.4,2.9-2.8,4-5.5,3.6c-2.7-0.4-4.7-2.2-4.3-5.1c0.4-2.9,2.7-3.1,5.4-2.7
				C318,16.8,320.1,17.7,319.7,20.6z"/>
		</g>
		<g>
			<path class="st3" d="M389.4,54.1c-0.4,2.9-2.8,4-5.5,3.6c-2.7-0.4-4.7-2.2-4.3-5.1c0.4-2.9,2.7-3.1,5.4-2.7
				C387.7,50.2,389.8,51.2,389.4,54.1z"/>
		</g>
		<g>
			<path class="st3" d="M315.6,49.1c-0.4,2.9-2.8,4-5.5,3.6c-2.7-0.4-4.7-2.2-4.3-5.1c0.4-2.9,2.7-3.1,5.4-2.7
				C313.9,45.2,316,46.2,315.6,49.1z"/>
		</g>
	</g>
	<g>
		<g>
			<path class="st2" d="M7.8,442.8c2-0.5,4.8-0.7,7.6-0.7c4.2,0,6.9,0.8,8.8,2.8c1.5,1.5,2.4,3.8,2.4,6.4c0,4.5-2.5,7.4-5.7,8.6v0.2
				c2.4,0.9,3.8,3.3,4.5,6.8c1,4.7,1.7,8,2.4,9.3h-4.1c-0.5-1-1.2-3.9-2-8.1c-0.9-4.7-2.5-6.4-6.1-6.6h-3.7v14.7H7.8V442.8z
				 M11.7,458.2h4c4.2,0,6.9-2.6,6.9-6.4c0-4.4-2.9-6.3-7-6.3c-1.9,0-3.3,0.2-3.9,0.4L11.7,458.2L11.7,458.2z"/>
		</g>
		<g>
			<path class="st2" d="M85,460.3H73.2v12.2h13.2v3.7H69.2v-33.8h16.5v3.7H73.2v10.7H85L85,460.3L85,460.3z"/>
		</g>
		<g>
			<path class="st2" d="M128.1,470.9c1.8,1.2,4.3,2.2,7.1,2.2c4,0,6.4-2.4,6.4-5.8c0-3.2-1.6-5-5.8-6.7c-5-2-8-4.8-8-9.6
				c0-5.3,3.9-9.2,9.9-9.2c3.1,0,5.4,0.8,6.7,1.7l-1.1,3.6c-1-0.6-3-1.6-5.8-1.6c-4.2,0-5.7,2.8-5.7,5.1c0,3.2,1.9,4.7,6.1,6.5
				c5.1,2.2,7.8,5,7.8,9.9c0,5.2-3.5,9.7-10.7,9.7c-2.9,0-6.1-1-7.8-2.2L128.1,470.9z"/>
		</g>
		<g>
			<path class="st2" d="M193.8,446.1h-9.3v-3.7h22.6v3.7h-9.3v30.1h-4V446.1z"/>
		</g>
		<g>
			<path class="st2" d="M249.1,465.5l-3.2,10.6h-4.1l10.4-33.8h4.8l10.4,33.8h-4.2l-3.3-10.6H249.1z M259.1,462.1l-3-9.7
				c-0.7-2.2-1.1-4.2-1.6-6.2h-0.1c-0.5,2-1,4.1-1.5,6.1l-3,9.8L259.1,462.1L259.1,462.1z"/>
		</g>
		<g>
			<path class="st2" d="M311.7,442.4v20c0,7.6,3,10.8,7.1,10.8c4.5,0,7.4-3.3,7.4-10.8v-20h4v19.7c0,10.4-4.9,14.7-11.5,14.7
				c-6.3,0-11-4-11-14.4v-19.9L311.7,442.4L311.7,442.4z"/>
		</g>
		<g>
			<path class="st2" d="M374.1,442.8c2-0.5,4.8-0.7,7.5-0.7c4.2,0,6.9,0.8,8.8,2.8c1.5,1.5,2.4,3.8,2.4,6.4c0,4.5-2.5,7.4-5.7,8.6
				v0.2c2.3,0.9,3.8,3.3,4.5,6.8c1,4.7,1.7,8,2.3,9.3h-4.1c-0.5-1-1.2-3.9-2-8.1c-0.9-4.7-2.5-6.4-6.1-6.6H378v14.7h-3.9V442.8z
				 M378,458.2h4c4.2,0,6.9-2.6,6.9-6.4c0-4.4-2.8-6.3-7-6.3c-1.9,0-3.3,0.2-3.9,0.4V458.2z"/>
		</g>
		<g>
			<path class="st2" d="M440.7,465.5l-3.2,10.6h-4.1l10.4-33.8h4.8l10.4,33.8h-4.2l-3.3-10.6H440.7z M450.7,462.1l-3-9.7
				c-0.7-2.2-1.1-4.2-1.6-6.2h-0.1c-0.5,2-1,4.1-1.5,6.1l-3,9.8L450.7,462.1L450.7,462.1z"/>
		</g>
		<g>
			<path class="st2" d="M500.6,476.2v-33.8h4.3l9.8,17.1c2.3,4,4,7.5,5.5,11l0.1,0c-0.4-4.5-0.5-8.6-0.5-13.9v-14.2h3.7v33.8h-4
				l-9.7-17.2c-2.1-3.8-4.2-7.6-5.7-11.3l-0.1,0c0.2,4.3,0.3,8.3,0.3,13.9v14.5L500.6,476.2L500.6,476.2z"/>
		</g>
		<g>
			<path class="st2" d="M573.2,446.1H564v-3.7h22.6v3.7h-9.3v30.1h-4V446.1z"/>
		</g>
	</g>
	<g>
		<path class="st2" d="M593,272H8.1c-4.5,0-8.1-3.6-8.1-8.1s3.6-8.1,8.1-8.1H593c4.5,0,8.1,3.6,8.1,8.1S597.5,272,593,272z"/>
	</g>
	<g>
		<path class="st2" d="M593,417.2H8.1c-4.5,0-8.1-3.6-8.1-8.1s3.6-8.1,8.1-8.1H593c4.5,0,8.1,3.6,8.1,8.1S597.5,417.2,593,417.2z"/>
	</g>
</g>
</svg>
